<svg width="176" height="84" viewBox="0 0 176 84" fill="none" xmlns="http://www.w3.org/2000/svg">
<path d="M1.368 18.2V13.298H10.526V41H5.054V18.2H1.368ZM15.7816 26.788C15.7816 22.4053 16.5669 18.9727 18.1376 16.49C19.7336 14.0073 22.3682 12.766 26.0416 12.766C29.7149 12.766 32.3369 14.0073 33.9076 16.49C35.5036 18.9727 36.3016 22.4053 36.3016 26.788C36.3016 31.196 35.5036 34.654 33.9076 37.162C32.3369 39.67 29.7149 40.924 26.0416 40.924C22.3682 40.924 19.7336 39.67 18.1376 37.162C16.5669 34.654 15.7816 31.196 15.7816 26.788ZM31.0576 26.788C31.0576 24.9133 30.9309 23.3427 30.6776 22.076C30.4496 20.784 29.9682 19.7327 29.2336 18.922C28.5242 18.1113 27.4602 17.706 26.0416 17.706C24.6229 17.706 23.5462 18.1113 22.8116 18.922C22.1022 19.7327 21.6209 20.784 21.3676 22.076C21.1396 23.3427 21.0256 24.9133 21.0256 26.788C21.0256 28.7133 21.1396 30.3347 21.3676 31.652C21.5956 32.944 22.0769 33.9953 22.8116 34.806C23.5462 35.5913 24.6229 35.984 26.0416 35.984C27.4602 35.984 28.5369 35.5913 29.2716 34.806C30.0062 33.9953 30.4876 32.944 30.7156 31.652C30.9436 30.3347 31.0576 28.7133 31.0576 26.788ZM40.348 26.788C40.348 22.4053 41.1333 18.9727 42.704 16.49C44.3 14.0073 46.9347 12.766 50.608 12.766C54.2813 12.766 56.9033 14.0073 58.474 16.49C60.07 18.9727 60.868 22.4053 60.868 26.788C60.868 31.196 60.07 34.654 58.474 37.162C56.9033 39.67 54.2813 40.924 50.608 40.924C46.9347 40.924 44.3 39.67 42.704 37.162C41.1333 34.654 40.348 31.196 40.348 26.788ZM55.624 26.788C55.624 24.9133 55.4973 23.3427 55.244 22.076C55.016 20.784 54.5347 19.7327 53.8 18.922C53.0907 18.1113 52.0267 17.706 50.608 17.706C49.1893 17.706 48.1127 18.1113 47.378 18.922C46.6687 19.7327 46.1873 20.784 45.934 22.076C45.706 23.3427 45.592 24.9133 45.592 26.788C45.592 28.7133 45.706 30.3347 45.934 31.652C46.162 32.944 46.6433 33.9953 47.378 34.806C48.1127 35.5913 49.1893 35.984 50.608 35.984C52.0267 35.984 53.1033 35.5913 53.838 34.806C54.5727 33.9953 55.054 32.944 55.282 31.652C55.51 30.3347 55.624 28.7133 55.624 26.788ZM67.8784 41.266C66.9157 41.266 66.1177 40.9747 65.4844 40.392C64.8764 39.784 64.5724 39.0367 64.5724 38.15C64.5724 37.2633 64.8764 36.5287 65.4844 35.946C66.1177 35.338 66.9157 35.034 67.8784 35.034C68.8157 35.034 69.5884 35.338 70.1964 35.946C70.8044 36.5287 71.1084 37.2633 71.1084 38.15C71.1084 39.0367 70.8044 39.784 70.1964 40.392C69.5884 40.9747 68.8157 41.266 67.8784 41.266ZM74.7855 26.788C74.7855 22.4053 75.5708 18.9727 77.1415 16.49C78.7375 14.0073 81.3722 12.766 85.0455 12.766C88.7188 12.766 91.3408 14.0073 92.9115 16.49C94.5075 18.9727 95.3055 22.4053 95.3055 26.788C95.3055 31.196 94.5075 34.654 92.9115 37.162C91.3408 39.67 88.7188 40.924 85.0455 40.924C81.3722 40.924 78.7375 39.67 77.1415 37.162C75.5708 34.654 74.7855 31.196 74.7855 26.788ZM90.0615 26.788C90.0615 24.9133 89.9348 23.3427 89.6815 22.076C89.4535 20.784 88.9722 19.7327 88.2375 18.922C87.5282 18.1113 86.4642 17.706 85.0455 17.706C83.6268 17.706 82.5502 18.1113 81.8155 18.922C81.1062 19.7327 80.6248 20.784 80.3715 22.076C80.1435 23.3427 80.0295 24.9133 80.0295 26.788C80.0295 28.7133 80.1435 30.3347 80.3715 31.652C80.5995 32.944 81.0808 33.9953 81.8155 34.806C82.5502 35.5913 83.6268 35.984 85.0455 35.984C86.4642 35.984 87.5408 35.5913 88.2755 34.806C89.0102 33.9953 89.4915 32.944 89.7195 31.652C89.9475 30.3347 90.0615 28.7133 90.0615 26.788ZM99.3519 26.788C99.3519 22.4053 100.137 18.9727 101.708 16.49C103.304 14.0073 105.939 12.766 109.612 12.766C113.285 12.766 115.907 14.0073 117.478 16.49C119.074 18.9727 119.872 22.4053 119.872 26.788C119.872 31.196 119.074 34.654 117.478 37.162C115.907 39.67 113.285 40.924 109.612 40.924C105.939 40.924 103.304 39.67 101.708 37.162C100.137 34.654 99.3519 31.196 99.3519 26.788ZM114.628 26.788C114.628 24.9133 114.501 23.3427 114.248 22.076C114.02 20.784 113.539 19.7327 112.804 18.922C112.095 18.1113 111.031 17.706 109.612 17.706C108.193 17.706 107.117 18.1113 106.382 18.922C105.673 19.7327 105.191 20.784 104.938 22.076C104.71 23.3427 104.596 24.9133 104.596 26.788C104.596 28.7133 104.71 30.3347 104.938 31.652C105.166 32.944 105.647 33.9953 106.382 34.806C107.117 35.5913 108.193 35.984 109.612 35.984C111.031 35.984 112.107 35.5913 112.842 34.806C113.577 33.9953 114.058 32.944 114.286 31.652C114.514 30.3347 114.628 28.7133 114.628 26.788ZM123.918 26.788C123.918 22.4053 124.704 18.9727 126.274 16.49C127.87 14.0073 130.505 12.766 134.178 12.766C137.852 12.766 140.474 14.0073 142.044 16.49C143.64 18.9727 144.438 22.4053 144.438 26.788C144.438 31.196 143.64 34.654 142.044 37.162C140.474 39.67 137.852 40.924 134.178 40.924C130.505 40.924 127.87 39.67 126.274 37.162C124.704 34.654 123.918 31.196 123.918 26.788ZM139.194 26.788C139.194 24.9133 139.068 23.3427 138.814 22.076C138.586 20.784 138.105 19.7327 137.37 18.922C136.661 18.1113 135.597 17.706 134.178 17.706C132.76 17.706 131.683 18.1113 130.948 18.922C130.239 19.7327 129.758 20.784 129.504 22.076C129.276 23.3427 129.162 24.9133 129.162 26.788C129.162 28.7133 129.276 30.3347 129.504 31.652C129.732 32.944 130.214 33.9953 130.948 34.806C131.683 35.5913 132.76 35.984 134.178 35.984C135.597 35.984 136.674 35.5913 137.408 34.806C138.143 33.9953 138.624 32.944 138.852 31.652C139.08 30.3347 139.194 28.7133 139.194 26.788ZM168.967 29.79H161.785V37.162H156.769V29.79H149.587V25.154H156.769V17.782H161.785V25.154H168.967V29.79Z" fill="#282938"/>
<path opacity="0.7" d="M7.536 64.848V66.032H2.688V69.792H6.624V70.976H2.688V76H1.232V64.848H7.536ZM10.0465 65.808C9.76917 65.808 9.5345 65.712 9.3425 65.52C9.1505 65.328 9.0545 65.0933 9.0545 64.816C9.0545 64.5387 9.1505 64.304 9.3425 64.112C9.5345 63.92 9.76917 63.824 10.0465 63.824C10.3132 63.824 10.5372 63.92 10.7185 64.112C10.9105 64.304 11.0065 64.5387 11.0065 64.816C11.0065 65.0933 10.9105 65.328 10.7185 65.52C10.5372 65.712 10.3132 65.808 10.0465 65.808ZM10.7505 67.232V76H9.2945V67.232H10.7505ZM17.504 67.072C18.5707 67.072 19.4347 67.3973 20.096 68.048C20.7573 68.688 21.088 69.616 21.088 70.832V76H19.648V71.04C19.648 70.1653 19.4293 69.4987 18.992 69.04C18.5547 68.5707 17.9573 68.336 17.2 68.336C16.432 68.336 15.8187 68.576 15.36 69.056C14.912 69.536 14.688 70.2347 14.688 71.152V76H13.232V67.232H14.688V68.48C14.976 68.032 15.3653 67.6853 15.856 67.44C16.3573 67.1947 16.9067 67.072 17.504 67.072ZM26.5704 76.144C25.8984 76.144 25.2957 76.032 24.7624 75.808C24.229 75.5733 23.8077 75.2533 23.4984 74.848C23.189 74.432 23.0184 73.9573 22.9864 73.424H24.4904C24.533 73.8613 24.7357 74.2187 25.0984 74.496C25.4717 74.7733 25.957 74.912 26.5544 74.912C27.109 74.912 27.5464 74.7893 27.8664 74.544C28.1864 74.2987 28.3464 73.9893 28.3464 73.616C28.3464 73.232 28.1757 72.9493 27.8344 72.768C27.493 72.576 26.965 72.3893 26.2504 72.208C25.5997 72.0373 25.0664 71.8667 24.6504 71.696C24.245 71.5147 23.893 71.2533 23.5944 70.912C23.3064 70.56 23.1624 70.1013 23.1624 69.536C23.1624 69.088 23.2957 68.6773 23.5624 68.304C23.829 67.9307 24.2077 67.6373 24.6984 67.424C25.189 67.2 25.749 67.088 26.3784 67.088C27.349 67.088 28.133 67.3333 28.7304 67.824C29.3277 68.3147 29.6477 68.9867 29.6904 69.84H28.2344C28.2024 69.3813 28.0157 69.0133 27.6744 68.736C27.3437 68.4587 26.8957 68.32 26.3304 68.32C25.8077 68.32 25.3917 68.432 25.0824 68.656C24.773 68.88 24.6184 69.1733 24.6184 69.536C24.6184 69.824 24.709 70.064 24.8904 70.256C25.0824 70.4373 25.317 70.5867 25.5944 70.704C25.8824 70.8107 26.277 70.9333 26.7784 71.072C27.4077 71.2427 27.9197 71.4133 28.3144 71.584C28.709 71.744 29.045 71.9893 29.3224 72.32C29.6104 72.6507 29.7597 73.0827 29.7704 73.616C29.7704 74.096 29.637 74.528 29.3704 74.912C29.1037 75.296 28.725 75.6 28.2344 75.824C27.7544 76.0373 27.1997 76.144 26.5704 76.144ZM43.5058 67.232L40.7698 76H39.2658L37.1538 69.04L35.0418 76H33.5378L30.7858 67.232H32.2738L34.2898 74.592L36.4658 67.232H37.9538L40.0818 74.608L42.0658 67.232H43.5058ZM52.9508 71.28C52.9508 71.5573 52.9348 71.8507 52.9028 72.16H45.8948C45.9481 73.024 46.2414 73.7013 46.7748 74.192C47.3188 74.672 47.9748 74.912 48.7428 74.912C49.3721 74.912 49.8948 74.768 50.3108 74.48C50.7374 74.1813 51.0361 73.7867 51.2068 73.296H52.7748C52.5401 74.1387 52.0708 74.8267 51.3668 75.36C50.6628 75.8827 49.7881 76.144 48.7428 76.144C47.9108 76.144 47.1641 75.9573 46.5028 75.584C45.8521 75.2107 45.3401 74.6827 44.9668 74C44.5934 73.3067 44.4068 72.5067 44.4068 71.6C44.4068 70.6933 44.5881 69.8987 44.9508 69.216C45.3134 68.5333 45.8201 68.0107 46.4708 67.648C47.1321 67.2747 47.8894 67.088 48.7428 67.088C49.5748 67.088 50.3108 67.2693 50.9508 67.632C51.5908 67.9947 52.0814 68.496 52.4228 69.136C52.7748 69.7653 52.9508 70.48 52.9508 71.28ZM51.4468 70.976C51.4468 70.4213 51.3241 69.9467 51.0788 69.552C50.8334 69.1467 50.4974 68.8427 50.0708 68.64C49.6548 68.4267 49.1908 68.32 48.6788 68.32C47.9428 68.32 47.3134 68.5547 46.7908 69.024C46.2788 69.4933 45.9854 70.144 45.9108 70.976H51.4468ZM62.8726 71.28C62.8726 71.5573 62.8566 71.8507 62.8246 72.16H55.8166C55.87 73.024 56.1633 73.7013 56.6966 74.192C57.2406 74.672 57.8966 74.912 58.6646 74.912C59.294 74.912 59.8166 74.768 60.2326 74.48C60.6593 74.1813 60.958 73.7867 61.1286 73.296H62.6966C62.462 74.1387 61.9926 74.8267 61.2886 75.36C60.5846 75.8827 59.71 76.144 58.6646 76.144C57.8326 76.144 57.086 75.9573 56.4246 75.584C55.774 75.2107 55.262 74.6827 54.8886 74C54.5153 73.3067 54.3286 72.5067 54.3286 71.6C54.3286 70.6933 54.51 69.8987 54.8726 69.216C55.2353 68.5333 55.742 68.0107 56.3926 67.648C57.054 67.2747 57.8113 67.088 58.6646 67.088C59.4966 67.088 60.2326 67.2693 60.8726 67.632C61.5126 67.9947 62.0033 68.496 62.3446 69.136C62.6966 69.7653 62.8726 70.48 62.8726 71.28ZM61.3686 70.976C61.3686 70.4213 61.246 69.9467 61.0006 69.552C60.7553 69.1467 60.4193 68.8427 59.9926 68.64C59.5766 68.4267 59.1126 68.32 58.6006 68.32C57.8646 68.32 57.2353 68.5547 56.7126 69.024C56.2006 69.4933 55.9073 70.144 55.8326 70.976H61.3686ZM66.5705 68.432V73.6C66.5705 74.0267 66.6612 74.3307 66.8425 74.512C67.0238 74.6827 67.3385 74.768 67.7865 74.768H68.8585V76H67.5465C66.7358 76 66.1278 75.8133 65.7225 75.44C65.3172 75.0667 65.1145 74.4533 65.1145 73.6V68.432H63.9785V67.232H65.1145V65.024H66.5705V67.232H68.8585V68.432H66.5705ZM76.3123 64.848V71.904C76.3123 72.896 76.5523 73.632 77.0323 74.112C77.5229 74.592 78.2003 74.832 79.0643 74.832C79.9176 74.832 80.5843 74.592 81.0643 74.112C81.5549 73.632 81.8003 72.896 81.8003 71.904V64.848H83.2563V71.888C83.2563 72.816 83.0696 73.6 82.6962 74.24C82.3229 74.8693 81.8163 75.3387 81.1763 75.648C80.5469 75.9573 79.8376 76.112 79.0483 76.112C78.2589 76.112 77.5443 75.9573 76.9043 75.648C76.2749 75.3387 75.7736 74.8693 75.4003 74.24C75.0376 73.6 74.8563 72.816 74.8563 71.888V64.848H76.3123ZM88.7891 76.144C88.1171 76.144 87.5145 76.032 86.9811 75.808C86.4478 75.5733 86.0265 75.2533 85.7171 74.848C85.4078 74.432 85.2371 73.9573 85.2051 73.424H86.7091C86.7518 73.8613 86.9545 74.2187 87.3171 74.496C87.6905 74.7733 88.1758 74.912 88.7731 74.912C89.3278 74.912 89.7651 74.7893 90.0851 74.544C90.4051 74.2987 90.5651 73.9893 90.5651 73.616C90.5651 73.232 90.3945 72.9493 90.0531 72.768C89.7118 72.576 89.1838 72.3893 88.4691 72.208C87.8185 72.0373 87.2851 71.8667 86.8691 71.696C86.4638 71.5147 86.1118 71.2533 85.8131 70.912C85.5251 70.56 85.3811 70.1013 85.3811 69.536C85.3811 69.088 85.5145 68.6773 85.7811 68.304C86.0478 67.9307 86.4265 67.6373 86.9171 67.424C87.4078 67.2 87.9678 67.088 88.5971 67.088C89.5678 67.088 90.3518 67.3333 90.9491 67.824C91.5465 68.3147 91.8665 68.9867 91.9091 69.84H90.4531C90.4211 69.3813 90.2345 69.0133 89.8931 68.736C89.5625 68.4587 89.1145 68.32 88.5491 68.32C88.0265 68.32 87.6105 68.432 87.3011 68.656C86.9918 68.88 86.8371 69.1733 86.8371 69.536C86.8371 69.824 86.9278 70.064 87.1091 70.256C87.3011 70.4373 87.5358 70.5867 87.8131 70.704C88.1011 70.8107 88.4958 70.9333 88.9971 71.072C89.6265 71.2427 90.1385 71.4133 90.5331 71.584C90.9278 71.744 91.2638 71.9893 91.5411 72.32C91.8291 72.6507 91.9785 73.0827 91.9891 73.616C91.9891 74.096 91.8558 74.528 91.5891 74.912C91.3225 75.296 90.9438 75.6 90.4531 75.824C89.9731 76.0373 89.4185 76.144 88.7891 76.144ZM102.045 71.28C102.045 71.5573 102.029 71.8507 101.997 72.16H94.9885C95.0418 73.024 95.3352 73.7013 95.8685 74.192C96.4125 74.672 97.0685 74.912 97.8365 74.912C98.4658 74.912 98.9885 74.768 99.4045 74.48C99.8312 74.1813 100.13 73.7867 100.301 73.296H101.869C101.634 74.1387 101.165 74.8267 100.461 75.36C99.7565 75.8827 98.8818 76.144 97.8365 76.144C97.0045 76.144 96.2578 75.9573 95.5965 75.584C94.9458 75.2107 94.4338 74.6827 94.0605 74C93.6872 73.3067 93.5005 72.5067 93.5005 71.6C93.5005 70.6933 93.6818 69.8987 94.0445 69.216C94.4072 68.5333 94.9138 68.0107 95.5645 67.648C96.2258 67.2747 96.9832 67.088 97.8365 67.088C98.6685 67.088 99.4045 67.2693 100.045 67.632C100.685 67.9947 101.175 68.496 101.517 69.136C101.869 69.7653 102.045 70.48 102.045 71.28ZM100.541 70.976C100.541 70.4213 100.418 69.9467 100.173 69.552C99.9272 69.1467 99.5912 68.8427 99.1645 68.64C98.7485 68.4267 98.2845 68.32 97.7725 68.32C97.0365 68.32 96.4072 68.5547 95.8845 69.024C95.3725 69.4933 95.0792 70.144 95.0045 70.976H100.541ZM105.422 68.656C105.678 68.1547 106.041 67.7653 106.51 67.488C106.99 67.2107 107.572 67.072 108.254 67.072V68.576H107.87C106.238 68.576 105.422 69.4613 105.422 71.232V76H103.966V67.232H105.422V68.656ZM113.039 76.144C112.367 76.144 111.764 76.032 111.231 75.808C110.698 75.5733 110.276 75.2533 109.967 74.848C109.658 74.432 109.487 73.9573 109.455 73.424H110.959C111.002 73.8613 111.204 74.2187 111.567 74.496C111.94 74.7733 112.426 74.912 113.023 74.912C113.578 74.912 114.015 74.7893 114.335 74.544C114.655 74.2987 114.815 73.9893 114.815 73.616C114.815 73.232 114.644 72.9493 114.303 72.768C113.962 72.576 113.434 72.3893 112.719 72.208C112.068 72.0373 111.535 71.8667 111.119 71.696C110.714 71.5147 110.362 71.2533 110.063 70.912C109.775 70.56 109.631 70.1013 109.631 69.536C109.631 69.088 109.764 68.6773 110.031 68.304C110.298 67.9307 110.676 67.6373 111.167 67.424C111.658 67.2 112.218 67.088 112.847 67.088C113.818 67.088 114.602 67.3333 115.199 67.824C115.796 68.3147 116.116 68.9867 116.159 69.84H114.703C114.671 69.3813 114.484 69.0133 114.143 68.736C113.812 68.4587 113.364 68.32 112.799 68.32C112.276 68.32 111.86 68.432 111.551 68.656C111.242 68.88 111.087 69.1733 111.087 69.536C111.087 69.824 111.178 70.064 111.359 70.256C111.551 70.4373 111.786 70.5867 112.063 70.704C112.351 70.8107 112.746 70.9333 113.247 71.072C113.876 71.2427 114.388 71.4133 114.783 71.584C115.178 71.744 115.514 71.9893 115.791 72.32C116.079 72.6507 116.228 73.0827 116.239 73.616C116.239 74.096 116.106 74.528 115.839 74.912C115.572 75.296 115.194 75.6 114.703 75.824C114.223 76.0373 113.668 76.144 113.039 76.144Z" fill="#282938"/>
</svg>
