<svg width="14" height="13" viewBox="0 0 14 13" fill="none" xmlns="http://www.w3.org/2000/svg">
<g clip-path="url(#clip0_759_566)">
<path d="M12.5377 0H1.45977C0.929102 0 0.5 0.418945 0.5 0.936914V12.0605C0.5 12.5785 0.929102 13 1.45977 13H12.5377C13.0684 13 13.5 12.5785 13.5 12.0631V0.936914C13.5 0.418945 13.0684 0 12.5377 0ZM4.35684 11.0779H2.42715V4.87246H4.35684V11.0779ZM3.39199 4.02695C2.77246 4.02695 2.27227 3.52676 2.27227 2.90977C2.27227 2.29277 2.77246 1.79258 3.39199 1.79258C4.00898 1.79258 4.50918 2.29277 4.50918 2.90977C4.50918 3.52422 4.00898 4.02695 3.39199 4.02695ZM11.5779 11.0779H9.65078V8.06152C9.65078 7.34297 9.63809 6.41621 8.64785 6.41621C7.64492 6.41621 7.49258 7.20078 7.49258 8.01074V11.0779H5.56797V4.87246H7.41641V5.72051H7.4418C7.69824 5.23301 8.32793 4.71758 9.26484 4.71758C11.2174 4.71758 11.5779 6.00234 11.5779 7.67305V11.0779Z" fill="white"/>
</g>
<defs>
<clipPath id="clip0_759_566">
<rect width="13" height="13" fill="white" transform="translate(0.5)"/>
</clipPath>
</defs>
</svg>
