<svg width="14" height="13" viewBox="0 0 14 13" fill="none" xmlns="http://www.w3.org/2000/svg">
<g clip-path="url(#clip0_759_564)">
<path d="M4.33967 11.7816C9.24412 11.7816 11.9274 7.71736 11.9274 4.1939C11.9274 4.07965 11.9249 3.96285 11.9198 3.84859C12.4418 3.47111 12.8922 3.00353 13.25 2.46785C12.7639 2.68414 12.2477 2.8254 11.7192 2.8868C12.2757 2.55322 12.6924 2.02919 12.892 1.41185C12.3685 1.72212 11.7959 1.94098 11.1989 2.05906C10.7967 1.63166 10.2649 1.34867 9.68566 1.25384C9.10646 1.15901 8.51215 1.25763 7.99461 1.53445C7.47707 1.81127 7.06514 2.25086 6.8225 2.78527C6.57986 3.31969 6.52002 3.91915 6.65225 4.49098C5.59218 4.43778 4.55513 4.1624 3.60832 3.6827C2.66151 3.203 1.82608 2.52968 1.15619 1.70639C0.815716 2.2934 0.711531 2.98804 0.864808 3.64911C1.01809 4.31019 1.41733 4.8881 1.98139 5.26539C1.55792 5.25195 1.14374 5.13793 0.773047 4.93277V4.96578C0.772668 5.58181 0.985636 6.17896 1.37575 6.65573C1.76587 7.1325 2.30905 7.45945 2.91297 7.58101C2.5207 7.68834 2.10899 7.70398 1.70971 7.62672C1.88012 8.15651 2.21169 8.61988 2.65813 8.95216C3.10457 9.28444 3.64361 9.46905 4.20002 9.48023C3.2554 10.2222 2.08851 10.6247 0.887305 10.6228C0.674281 10.6225 0.461466 10.6094 0.25 10.5837C1.4703 11.3666 2.88983 11.7824 4.33967 11.7816Z" fill="white"/>
</g>
<defs>
<clipPath id="clip0_759_564">
<rect width="13" height="13" fill="white" transform="translate(0.25)"/>
</clipPath>
</defs>
</svg>
