<svg width="17" height="14" viewBox="0 0 17 14" fill="none" xmlns="http://www.w3.org/2000/svg">
<path d="M5.69945 13.5005C11.7357 13.5005 15.0382 8.49829 15.0382 4.16173C15.0382 4.0211 15.0351 3.87735 15.0288 3.73673C15.6713 3.27213 16.2257 2.69666 16.666 2.03735C16.0677 2.30356 15.4324 2.47741 14.782 2.55298C15.4669 2.14243 15.9797 1.49747 16.2254 0.737666C15.5811 1.11953 14.8764 1.3889 14.1416 1.53423C13.6466 1.0082 12.992 0.659899 12.2791 0.543189C11.5663 0.426479 10.8348 0.547855 10.1978 0.888553C9.56088 1.22925 9.05388 1.77029 8.75525 2.42803C8.45661 3.08577 8.38297 3.82357 8.5457 4.52735C7.24101 4.46188 5.96464 4.12296 4.79934 3.53255C3.63403 2.94215 2.60581 2.11345 1.78133 1.10017C1.36228 1.82265 1.23405 2.67759 1.4227 3.49122C1.61135 4.30485 2.10272 5.01612 2.79695 5.48048C2.27577 5.46393 1.766 5.32361 1.30977 5.0711V5.11173C1.3093 5.86992 1.57141 6.60488 2.05156 7.19167C2.5317 7.77846 3.20023 8.18086 3.94352 8.33048C3.46072 8.46257 2.954 8.48182 2.46258 8.38673C2.67232 9.03878 3.0804 9.60908 3.62986 10.018C4.17933 10.427 4.84276 10.6542 5.52758 10.668C4.36497 11.5812 2.9288 12.0766 1.45039 12.0742C1.18821 12.0738 0.926282 12.0578 0.666016 12.0261C2.16792 12.9897 3.91504 13.5014 5.69945 13.5005Z" fill="white"/>
</svg>
